<?xml version="1.0" standalone="no"?><!DOCTYPE svg PUBLIC "-//W3C//DTD SVG 1.1//EN" "http://www.w3.org/Graphics/SVG/1.1/DTD/svg11.dtd"><svg t="1760021718636" class="icon" viewBox="0 0 1024 1024" version="1.1" xmlns="http://www.w3.org/2000/svg" p-id="9900" xmlns:xlink="http://www.w3.org/1999/xlink" width="200" height="200"><path d="M832 893.866667H192c-59.733333 0-106.666667-46.933333-106.666667-106.666667V366.933333c0-59.733333 46.933333-106.666667 106.666667-106.666666h640c59.733333 0 106.666667 46.933333 106.666667 106.666666v418.133334c0 59.733333-46.933333 108.8-106.666667 108.8z" fill="#2E72FF" p-id="9901"></path><path d="M279.466667 317.866667h-55.466667c-23.466667 0-42.666667-19.2-42.666667-42.666667s19.2-42.666667 42.666667-42.666667h55.466667c23.466667 0 42.666667 19.2 42.666666 42.666667s-19.2 42.666667-42.666666 42.666667zM800 317.866667h-55.466667c-23.466667 0-42.666667-19.2-42.666666-42.666667s19.2-42.666667 42.666666-42.666667h55.466667c23.466667 0 42.666667 19.2 42.666667 42.666667s-19.2 42.666667-42.666667 42.666667zM573.866667 473.6h-123.733334c-59.733333 0-108.8-49.066667-108.8-108.8v-125.866667c0-59.733333 49.066667-108.8 108.8-108.8h123.733334c59.733333 0 108.8 49.066667 108.8 108.8v125.866667c0 61.866667-49.066667 108.8-108.8 108.8z m-123.733334-258.133333c-12.8 0-23.466667 10.666667-23.466666 23.466666v125.866667c0 12.8 10.666667 23.466667 23.466666 23.466667h123.733334c12.8 0 23.466667-10.666667 23.466666-23.466667v-125.866667c0-12.8-10.666667-23.466667-23.466666-23.466666h-123.733334z" fill="#2E72FF" p-id="9902"></path><path d="M471.466667 593.066667h-61.866667c-8.533333 0-12.8-8.533333-10.666667-14.933334l61.866667-160c2.133333-4.266667 6.4-6.4 10.666667-6.4h102.4c8.533333 0 12.8 8.533333 10.666666 14.933334l-36.266666 87.466666h66.133333c10.666667 0 14.933333 10.666667 8.533333 19.2l-164.266666 185.6c-8.533333 8.533333-23.466667 2.133333-19.2-10.666666l32-115.2z" fill="#FFFFFF" p-id="9903"></path></svg>